<svg xmlns="http://www.w3.org/2000/svg" viewBox="0 0 500 500" width="100" height="100">
  <circle cx="250" cy="250" r="200" fill="#3498db"/>
  <path d="M250 100c-82.8 0-150 67.2-150 150s67.2 150 150 150 150-67.2 150-150S332.8 100 250 100zm0 270c-66.2 0-120-53.8-120-120s53.8-120 120-120 120 53.8 120 120-53.8 120-120 120z" fill="#fff"/>
  <path d="M280 200h-60v100h30v-30h30c16.6 0 30-13.4 30-30v-10c0-16.6-13.4-30-30-30zm0 40h-30v-10h30v10z" fill="#fff"/>
  <circle cx="150" cy="150" r="10" fill="#fff"/>
  <circle cx="180" cy="130" r="8" fill="#fff"/>
  <circle cx="130" cy="180" r="12" fill="#fff"/>
  <circle cx="160" cy="200" r="7" fill="#fff"/>
  <circle cx="200" cy="160" r="9" fill="#fff"/>
</svg>